<svg width="475" height="179" viewBox="0 0 475 179" fill="none" xmlns="http://www.w3.org/2000/svg">
<path d="M17.5801 102.73C18.3901 97.04 18.5901 91.27 19.9001 85.64C21.3901 79.25 23.7101 73.17 26.8701 67.06C18.1001 66.53 11.0701 63.16 6.03009 56.08C2.51009 51.13 0.750092 45.66 1.28009 39.6C2.38009 27.02 12.2201 17.41 24.7101 16.52C36.7801 15.67 49.6901 24.32 51.9301 39.4C54.5301 37.96 57.0701 36.49 59.6601 35.13C66.9701 31.27 74.7201 28.7 82.8801 27.41C84.3501 27.18 84.9101 26.84 84.9201 25.21C84.9501 18.56 85.0101 18.46 78.3501 18.52C75.7901 18.54 74.7201 17.85 74.8501 15.12C75.0501 11.03 74.9701 6.91 74.9001 2.81C74.8701 0.819998 75.5901 0.0100043 77.6601 0.0200043C89.3601 0.0700043 101.06 0.05 112.76 0C114.55 0 115.26 0.690006 115.24 2.49001C115.18 6.94001 115.17 11.4 115.27 15.85C115.31 17.54 114.75 18.27 113.02 18.16C111.02 18.04 109 18.09 107 17.98C105.77 17.92 105.04 18.1 105.14 19.64C105.28 21.9 104.48 24.52 105.38 26.35C106.37 28.39 109.39 27.52 111.49 28.02C119.44 29.9 126.95 32.82 134.13 36.67C134.8 37.03 135.53 38.16 136.34 37.32C137.13 36.51 136.17 35.73 135.69 35.05C133.35 31.71 133.33 31.7 136.18 28.9C138.17 26.94 140.16 24.98 142.21 23.09C144.5 20.98 145.58 21.04 147.75 23.19C151.4 26.82 155.01 30.5 158.75 34.03C160.67 35.84 160.63 37.58 159.22 39.56C157.94 41.37 155.97 42.44 154.44 43.97C152.02 44.39 149.59 44.03 147.17 44.1C146.68 44.11 146.03 43.91 145.8 44.52C145.59 45.1 146.15 45.44 146.5 45.79C148.05 47.29 149.62 48.78 151.18 50.27C156.37 55.73 160.93 61.63 164.68 68.19C165.8 70.15 165.7 71.68 164.6 73.48C162.09 77.6 159.14 81.36 155.84 84.86C154.74 86.03 153.78 87.42 152.19 88.14C144.43 58.56 110.29 36.92 76.7801 48.64C60.8901 54.2 48.8501 64.55 41.9101 79.87C32.7601 100.07 35.3801 119.57 47.6901 138.19C40.5801 138.53 33.8401 138.74 27.2301 136.71C26.0001 136.33 25.4201 135.5 24.9301 134.46C21.1201 126.43 18.7401 118.02 18.0901 109.14C18.3501 106.97 17.7001 104.87 17.5801 102.73ZM14.2201 61.94C16.2601 63.23 18.0101 63.98 19.8601 64.52C26.9401 66.6 27.8201 66.26 31.6301 60.02C31.7101 59.89 31.6901 59.7 31.7201 59.51C31.0801 58.98 30.0401 59.25 29.5201 58.49C32.2601 56.63 33.8401 53.93 35.3201 51.15C35.8701 50.12 36.4901 49.56 37.7701 49.2C46.3401 46.79 49.9301 43.75 45.2901 35.2C45.0001 34.66 44.7601 34.1 44.4101 33.6C43.7201 32.59 43.5701 31.6 44.0801 30.44C45.1901 27.94 44.4201 25.92 42.4301 24.16C40.5901 22.53 38.6101 21.15 36.4201 20.03C34.3201 18.96 32.1701 18.83 30.1901 20.01C28.5501 20.99 27.0301 21.05 25.2501 20.69C24.0901 20.46 22.8201 20.74 21.6101 20.8C20.8401 20.84 20.0001 21.13 19.3601 20.49C18.0201 19.11 16.7201 19.7 15.3501 20.41C13.2401 21.51 11.3901 22.91 9.73009 24.61C8.86009 25.5 8.26009 26.43 8.81009 27.6C10.5001 31.22 9.54008 34.35 7.27008 37.33C6.86008 37.87 6.59008 38.56 6.41008 39.23C5.90008 41.21 5.10008 42.18 3.24008 40.39C3.16008 40.32 2.91008 40.42 2.60008 40.47C2.47008 45.37 3.70008 49.87 6.63008 54.26C6.95008 52.77 7.17009 51.59 7.48009 50.44C7.64009 49.85 7.62009 49 8.78009 49.47C10.7701 50.28 12.8901 50.11 14.9801 50.04C15.7601 50.02 16.4701 49.88 16.9801 50.8C18.5401 53.66 20.3801 56.32 22.8701 58.44C20.0001 59.6 17.2901 60.69 14.2201 61.92V61.94ZM24.5401 105.79C28.8901 78.44 41.4101 56.47 66.9001 43.97C92.6701 31.33 117.54 35.79 141.56 49.77C136.82 45.29 131.58 41.44 125.6 38.64C109.01 30.86 91.8201 29.57 74.3701 34.86C42.3401 44.56 21.7401 74.28 24.5401 105.8V105.79ZM90.8401 14.55C89.2101 13.2 87.9701 12.25 86.8201 11.2C84.2401 8.86 84.2601 8.66 87.6101 7.72C91.0301 6.75 94.5101 5.97 97.9601 5.11C92.5101 4.8 87.1201 4.85999 81.7301 4.75999C80.1001 4.72999 79.5901 5.25 79.7001 6.83C79.8401 8.82 79.8601 10.83 79.7701 12.83C79.7101 14.25 80.2801 14.61 81.5901 14.57C84.5201 14.49 87.4501 14.55 90.8501 14.55H90.8401ZM145.84 39.5C145.41 37.93 145.04 36.79 144.79 35.62C144.54 34.43 144.32 33.22 144.26 32.01C144.22 31.17 143.72 29.97 145.21 29.77C145.69 29.71 146.4 30.02 146.03 29.12C145.71 28.37 145.46 27.45 144.5 27.21C144.13 27.12 139.07 32.4 139.17 32.76C139.25 33.08 139.48 33.38 139.72 33.62C141.59 35.53 143.3 37.61 145.84 39.49V39.5Z" fill="#060606"/>
<path d="M151.18 50.27C149.62 48.78 148.05 47.3 146.5 45.79C146.14 45.44 145.59 45.1 145.8 44.52C146.02 43.9 146.68 44.11 147.17 44.1C149.59 44.03 152.03 44.39 154.44 43.97C162.23 44.23 169.89 45.07 177.21 48.08C188.41 52.7 192.47 62.13 187.97 73.37C184.32 82.51 177.89 89.58 171.08 96.41C157.42 110.08 141.25 120.18 124.44 129.36C102.84 141.17 80.18 150.26 56.04 155.43C44.21 157.96 32.31 159.59 20.22 157.3C16.61 156.62 13.11 155.54 9.90002 153.69C3.41002 149.94 -0.0599806 144.28 0.510019 136.83C1.54002 123.22 8.57002 112.44 17.57 102.73C17.69 104.87 18.34 106.97 18.08 109.14C17.8 109.3 17.39 109.39 17.24 109.64C14.89 113.62 12.66 117.67 11.44 122.18C8.37001 133.56 12.68 141.38 23.96 144.69C33.09 147.37 42.32 146.48 51.47 144.9C77.01 140.49 100.82 131.31 123.13 118.2C134.82 111.33 145.88 103.56 155.73 94.2C162.87 87.42 169.12 79.95 172.36 70.41C174.76 63.35 172.56 57.59 166 54.1C161.8 51.86 157.27 50.62 152.57 49.94C152.07 49.87 151.52 49.68 151.17 50.27H151.18Z" fill="#109A0A"/>
<path d="M173.6 101.58C173.87 122.83 161.66 154.72 128.78 170.47C99.9401 184.29 67.0301 178.58 47.0901 161.56C51.7801 160.62 56.3001 159.56 60.8701 158.85C65.2101 158.17 69.2801 155.34 73.7101 156.34C77.9301 157.29 82.0301 158.79 86.3601 159.48C113.1 163.73 141.04 147.8 150.72 122.56C151.67 120.07 153.03 118.3 155.22 116.84C161.77 112.48 167.61 107.23 173.6 101.58ZM157.73 134.77C142.29 156.94 121.61 169.12 95.3301 171.74C123.51 173.4 150.06 152.1 157.73 134.77Z" fill="#060606"/>
<path d="M117.51 140.53C118.36 140.53 118.77 140.95 119.09 141.51C120.35 143.69 121.64 145.86 122.88 148.05C123.37 148.92 123.66 149.83 122.51 150.52C121.35 151.22 120.91 150.28 120.49 149.58C119.15 147.35 117.86 145.07 116.58 142.8C115.9 141.58 116.35 140.84 117.5 140.53H117.51Z" fill="#161616"/>
<path d="M96.93 152.4C96.93 153.7 96.93 155.01 96.93 156.31C96.93 157.24 96.53 157.79 95.52 157.77C94.55 157.74 94.1 157.22 94.11 156.28C94.13 153.59 94.16 150.89 94.21 148.2C94.22 147.42 94.62 146.84 95.45 146.8C96.39 146.76 96.91 147.29 96.94 148.22C96.97 149.61 96.94 151 96.94 152.39C96.94 152.39 96.94 152.39 96.93 152.39V152.4Z" fill="#060606"/>
<path d="M137.64 125.77C138.32 125.76 143.7 129.62 143.92 130.24C144.13 130.84 143.75 131.23 143.44 131.62C143.06 132.1 142.55 132.14 142.06 131.82C140.18 130.59 138.31 129.35 136.44 128.1C135.89 127.73 135.87 127.25 136.24 126.77C136.6 126.3 136.94 125.75 137.65 125.76L137.64 125.77Z" fill="#161616"/>
<path d="M151.18 50.27C151.53 49.68 152.08 49.87 152.58 49.94C157.27 50.62 161.81 51.86 166.01 54.1C172.56 57.6 174.77 63.35 172.37 70.41C169.13 79.95 162.88 87.43 155.74 94.2C145.89 103.55 134.83 111.33 123.14 118.2C100.83 131.31 77.0201 140.48 51.4801 144.9C42.3301 146.48 33.1101 147.37 23.9701 144.69C12.6901 141.38 8.38006 133.56 11.4501 122.18C12.6701 117.67 14.8901 113.63 17.2501 109.64C17.3901 109.4 17.8001 109.31 18.0901 109.14C18.7501 118.02 21.1201 126.43 24.9301 134.46C25.4201 135.5 25.9901 136.33 27.2301 136.71C33.8401 138.74 40.5801 138.54 47.6901 138.19C35.3801 119.57 32.7601 100.07 41.9101 79.87C48.8501 64.54 60.8901 54.19 76.7801 48.64C110.29 36.92 144.43 58.56 152.19 88.14C153.78 87.43 154.74 86.04 155.84 84.86C159.13 81.36 162.09 77.59 164.6 73.48C165.7 71.68 165.8 70.15 164.68 68.19C160.93 61.63 156.37 55.73 151.18 50.27ZM67.6601 123.71C71.1001 123.71 73.8701 123.67 76.6301 123.73C77.6501 123.76 78.2101 123.3 78.7301 122.52C83.0201 116.07 87.4101 109.67 91.6101 103.16C94.0401 99.39 94.5201 95.14 93.4501 90.83C91.9901 84.93 88.0301 81.36 82.2101 80.08C75.8401 78.67 70.1701 80.26 65.9801 85.39C61.9001 90.39 61.7101 96.1 64.2101 101.88C66.4201 107 70.5401 109.69 76.2501 110.24C73.4201 114.68 70.7701 118.85 67.6801 123.7L67.6601 123.71ZM110.78 116.33C108.43 114.63 106.74 113.05 106.74 110.37C106.74 105.05 106.63 99.73 106.74 94.42C106.82 90.45 109.52 87.96 113.43 87.89C117.42 87.83 120.3 90.41 120.41 94.43C120.53 98.96 120.41 103.5 120.44 108.03C120.44 108.92 120.15 109.89 120.89 111.01C123.43 109.28 125.85 107.63 128.28 105.98C129.04 105.46 129.07 104.7 129.07 103.9C129.1 100.5 129.28 97.1 129.15 93.7C128.86 86.14 122.72 79.98 115.27 79.59C106.24 79.12 99.3901 83.96 98.4101 92.04C97.5701 98.96 97.9701 105.96 98.4501 112.92C98.6301 115.62 100.18 117.79 102.2 119.6C102.91 120.24 103.55 120.62 104.5 120.04C106.49 118.83 108.51 117.67 110.79 116.33H110.78ZM96.8801 53.59C96.8801 53.59 96.8501 53.59 96.8401 53.59C96.8401 52.02 96.8801 50.45 96.8201 48.88C96.7901 48.08 96.2601 47.63 95.4401 47.61C94.5701 47.59 94.1601 48.12 94.1501 48.92C94.0901 51.97 94.0401 55.02 94.0301 58.07C94.0301 58.96 94.53 59.6 95.48 59.57C96.41 59.55 96.8801 58.98 96.8701 58.03C96.8701 56.55 96.8701 55.07 96.8701 53.58L96.8801 53.59ZM134.51 81.25C135.24 81.25 143.09 76.06 143.34 75.42C143.61 74.74 143.24 74.23 142.86 73.77C142.47 73.29 141.93 73.33 141.46 73.64C138.86 75.36 136.26 77.08 133.7 78.85C133.2 79.2 132.89 79.78 133.28 80.45C133.55 80.91 133.89 81.3 134.51 81.25ZM56.9901 125.5C56.5501 124.11 55.6801 123.76 54.4301 124.55C52.1601 125.99 49.9001 127.46 47.6701 128.95C46.9501 129.43 46.0801 130 46.6601 131.03C47.3201 132.2 48.2801 131.74 49.1201 131.21C51.4001 129.79 53.6701 128.35 55.9401 126.9C56.4501 126.57 56.9601 126.23 56.9901 125.49V125.5ZM48.6901 73.54C47.9801 73.57 47.5701 73.87 47.3901 74.41C47.1101 75.25 47.7001 75.74 48.2401 76.13C50.5101 77.73 52.8301 79.28 55.1301 80.84C55.9501 81.4 56.7201 81.55 57.3401 80.55C57.8901 79.66 57.4401 79.04 56.7401 78.58C54.3501 76.99 51.9401 75.43 49.5301 73.88C49.2501 73.7 48.8901 73.62 48.6801 73.54H48.6901ZM123.61 56.75C123.65 55.69 123.4 55.17 122.74 54.94C122.19 54.74 121.66 54.9 121.37 55.38C119.77 58.05 118.19 60.75 116.63 63.44C116.27 64.07 116.53 64.65 116.96 65.1C117.47 65.63 118.21 65.54 118.61 65.08C120.84 62.51 122.14 59.38 123.62 56.75H123.61ZM44.9101 104.81C44.9101 104.81 44.9101 104.82 44.9101 104.83C46.3801 104.83 47.8601 104.79 49.3301 104.84C50.3801 104.88 51.0901 104.43 51.1101 103.44C51.1301 102.53 50.4001 102.16 49.4901 102.17C46.3701 102.17 43.2501 102.17 40.1301 102.15C39.2701 102.15 38.4901 102.33 38.4701 103.35C38.4501 104.46 39.2701 104.79 40.2201 104.81C41.7801 104.83 43.3401 104.81 44.9001 104.81H44.9101ZM68.0401 54.91C67.0301 55.43 66.5501 56.21 67.3401 57.49C68.7501 59.77 70.1401 62.07 71.5401 64.36C72.0301 65.15 72.6001 65.84 73.6101 65.13C74.5001 64.51 74.4101 63.73 73.8701 62.87C72.4501 60.59 71.0801 58.29 69.6801 56C69.3601 55.47 68.9701 55.02 68.0401 54.91Z" fill="#F9FAF9"/>
<path d="M14.22 61.94C17.28 60.71 19.99 59.62 22.87 58.46C20.38 56.34 18.54 53.68 16.98 50.82C16.47 49.89 15.76 50.03 14.98 50.06C12.89 50.12 10.76 50.3 8.78002 49.49C7.62002 49.02 7.64002 49.87 7.48002 50.46C7.17002 51.61 6.96001 52.79 6.63001 54.28C3.71001 49.89 2.48001 45.39 2.60001 40.49C2.91001 40.45 3.16001 40.34 3.24001 40.41C5.11001 42.2 5.91001 41.23 6.41001 39.25C6.58001 38.58 6.85001 37.89 7.27001 37.35C9.53001 34.37 10.5 31.23 8.81002 27.62C8.26002 26.44 8.85002 25.52 9.73002 24.63C11.39 22.93 13.24 21.53 15.35 20.43C16.73 19.71 18.03 19.13 19.36 20.51C19.99 21.16 20.83 20.86 21.61 20.82C22.83 20.76 24.09 20.48 25.25 20.71C27.03 21.06 28.55 21 30.19 20.03C32.16 18.85 34.31 18.98 36.42 20.05C38.61 21.17 40.59 22.54 42.43 24.18C44.42 25.94 45.18 27.96 44.08 30.46C43.57 31.62 43.72 32.61 44.41 33.62C44.75 34.12 45 34.69 45.29 35.22C49.93 43.77 46.34 46.81 37.77 49.22C36.48 49.58 35.87 50.14 35.32 51.17C33.84 53.94 32.26 56.65 29.52 58.51C30.04 59.27 31.08 59 31.72 59.53C31.69 59.72 31.72 59.91 31.63 60.04C27.82 66.28 26.94 66.62 19.86 64.54C18.02 64 16.27 63.25 14.22 61.96V61.94ZM26.4 41.94C31.35 41.94 30.96 41.72 33.13 37.84C35.29 33.99 34.88 31.56 31.42 28.8C28.14 26.19 25.61 25.71 22.33 28.41C19.4167 30.8033 18.6067 33.7833 19.9 37.35C21.0067 40.41 23.1733 41.94 26.4 41.94Z" fill="#F9FAF9"/>
<path d="M24.54 105.79C21.74 74.27 42.34 44.5501 74.37 34.8501C91.82 29.5701 109.01 30.8501 125.6 38.6301C131.58 41.4401 136.82 45.28 141.56 49.76C117.54 35.79 92.67 31.3201 66.9 43.9601C41.41 56.4601 28.89 78.43 24.54 105.78V105.79Z" fill="#F9FAF9"/>
<path d="M90.84 14.55C87.44 14.55 84.51 14.5 81.58 14.57C80.26 14.6 79.69 14.25 79.76 12.83C79.85 10.83 79.83 8.82001 79.69 6.83001C79.58 5.25001 80.09 4.73001 81.72 4.76001C87.11 4.86001 92.5 4.80001 97.95 5.11001C94.5 5.97001 91.03 6.76001 87.6 7.72001C84.25 8.67001 84.24 8.87001 86.81 11.2C87.96 12.25 89.2 13.2 90.83 14.55H90.84Z" fill="#F9FAF9"/>
<path d="M145.84 39.5C143.3 37.61 141.59 35.54 139.72 33.63C139.48 33.39 139.26 33.08 139.17 32.77C139.07 32.41 144.13 27.12 144.5 27.22C145.46 27.46 145.71 28.38 146.03 29.13C146.41 30.03 145.69 29.72 145.21 29.78C143.72 29.98 144.22 31.19 144.26 32.02C144.32 33.23 144.54 34.44 144.79 35.63C145.04 36.8 145.41 37.94 145.84 39.51V39.5Z" fill="#F9FAF9"/>
<path d="M157.73 134.77C150.06 152.1 123.51 173.4 95.3301 171.74C121.61 169.12 142.29 156.94 157.73 134.77Z" fill="#F9FAF9"/>
<path d="M67.66 123.71C70.75 118.86 73.4 114.69 76.23 110.25C70.53 109.69 66.41 107 64.19 101.89C61.69 96.11 61.88 90.41 65.96 85.4C70.15 80.26 75.82 78.68 82.19 80.09C88.01 81.38 91.97 84.95 93.43 90.84C94.5 95.15 94.02 99.4 91.59 103.17C87.39 109.68 83 116.07 78.71 122.53C78.19 123.31 77.63 123.77 76.61 123.74C73.85 123.67 71.09 123.72 67.64 123.72L67.66 123.71ZM85.21 94.95C85.21 90.67 82.42 87.86 78.19 87.86C74.12 87.86 71.34 90.71 71.38 94.84C71.42 99.13 74.28 102.22 78.21 102.22C82.14 102.22 85.22 99.03 85.21 94.95Z" fill="#060606"/>
<path d="M110.78 116.33C108.5 117.67 106.47 118.83 104.49 120.04C103.54 120.62 102.9 120.24 102.19 119.6C100.18 117.79 98.63 115.62 98.44 112.92C97.97 105.97 97.57 98.97 98.4 92.04C99.38 83.96 106.23 79.12 115.26 79.59C122.71 79.98 128.85 86.14 129.14 93.7C129.27 97.09 129.08 100.5 129.06 103.9C129.06 104.71 129.03 105.47 128.27 105.98C125.84 107.63 123.41 109.28 120.88 111.01C120.14 109.89 120.44 108.92 120.43 108.03C120.4 103.5 120.52 98.96 120.4 94.43C120.29 90.41 117.41 87.82 113.42 87.89C109.51 87.95 106.82 90.45 106.73 94.42C106.62 99.74 106.73 105.06 106.73 110.37C106.73 113.05 108.42 114.63 110.77 116.33H110.78Z" fill="#090909"/>
<path d="M96.8801 53.59C96.8801 55.07 96.8801 56.55 96.8801 58.04C96.8801 58.98 96.4101 59.55 95.4901 59.58C94.5401 59.6 94.04 58.96 94.04 58.08C94.04 55.03 94.0901 51.98 94.1601 48.93C94.1801 48.13 94.58 47.61 95.45 47.62C96.27 47.64 96.8 48.09 96.83 48.89C96.89 50.46 96.8501 52.03 96.8501 53.6C96.8601 53.6 96.88 53.6 96.89 53.6L96.8801 53.59Z" fill="#090909"/>
<path d="M134.51 81.25C133.9 81.3 133.56 80.91 133.28 80.45C132.89 79.79 133.2 79.2 133.7 78.85C136.26 77.08 138.86 75.36 141.46 73.64C141.94 73.32 142.47 73.29 142.86 73.77C143.24 74.23 143.61 74.74 143.34 75.42C143.09 76.06 135.23 81.25 134.51 81.25Z" fill="#161616"/>
<path d="M56.99 125.5C56.97 126.24 56.46 126.58 55.94 126.91C53.67 128.35 51.4 129.8 49.12 131.22C48.27 131.75 47.31 132.2 46.66 131.04C46.08 130.01 46.95 129.44 47.67 128.96C49.91 127.47 52.17 126.01 54.43 124.56C55.68 123.77 56.55 124.11 56.99 125.51V125.5Z" fill="#161616"/>
<path d="M48.69 73.54C48.9 73.62 49.26 73.6901 49.54 73.8801C51.95 75.4301 54.3601 76.99 56.7501 78.58C57.4501 79.05 57.9 79.66 57.35 80.55C56.73 81.55 55.9601 81.4 55.1401 80.84C52.8401 79.28 50.5301 77.7301 48.2501 76.1301C47.7001 75.7501 47.11 75.25 47.4 74.41C47.58 73.87 47.99 73.57 48.7 73.54H48.69Z" fill="#161616"/>
<path d="M123.61 56.75C122.13 59.38 120.83 62.51 118.6 65.08C118.21 65.53 117.47 65.63 116.95 65.1C116.52 64.65 116.26 64.07 116.62 63.44C118.19 60.75 119.76 58.05 121.36 55.38C121.65 54.9 122.18 54.74 122.73 54.94C123.39 55.17 123.64 55.69 123.6 56.75H123.61Z" fill="#161616"/>
<path d="M44.91 104.81C43.35 104.81 41.79 104.83 40.23 104.81C39.27 104.8 38.45 104.47 38.48 103.35C38.5 102.34 39.28 102.15 40.14 102.15C43.26 102.16 46.3801 102.18 49.5001 102.17C50.4101 102.17 51.14 102.53 51.12 103.44C51.1 104.44 50.39 104.88 49.34 104.84C47.87 104.78 46.39 104.83 44.92 104.83C44.92 104.83 44.92 104.82 44.92 104.81H44.91Z" fill="#090909"/>
<path d="M68.04 54.91C68.97 55.01 69.36 55.46 69.68 56C71.08 58.29 72.45 60.6 73.87 62.87C74.41 63.73 74.5 64.51 73.61 65.13C72.6 65.84 72.02 65.15 71.54 64.36C70.14 62.07 68.75 59.78 67.34 57.49C66.55 56.21 67.03 55.43 68.04 54.91Z" fill="#161616"/>
<path d="M26.4 41.94C23.1734 41.94 21.0067 40.41 19.9 37.35C18.6067 33.7833 19.4167 30.8033 22.33 28.41C25.61 25.71 28.14 26.19 31.42 28.8C34.88 31.56 35.29 33.98 33.13 37.84C30.95 41.71 31.35 41.94 26.4 41.94Z" fill="#060606"/>
<path d="M85.2101 94.95C85.2101 99.03 82.1301 102.22 78.2101 102.22C74.2801 102.22 71.4201 99.13 71.3801 94.84C71.3401 90.71 74.1201 87.86 78.1901 87.86C82.4201 87.86 85.2101 90.67 85.2101 94.95Z" fill="#F9FAF9"/>
<path d="M244.28 79.1988C241.69 81.8288 240.46 84.9188 238.79 87.7488C237.87 89.3088 237.42 91.4288 234.85 91.3688C232.51 91.3188 232.21 89.3288 231.36 87.9488C229.58 85.0688 228 82.0588 226.33 79.0888C225.32 79.5088 225.77 80.3188 225.75 80.9088C225.67 84.3088 225.63 87.7088 225.66 91.1188C225.67 92.8288 225.11 93.5588 223.23 93.5188C219.85 93.4488 219.84 93.5688 219.84 90.0888C219.84 83.1088 219.81 76.1288 219.89 69.1488C219.9 68.1688 219.25 66.4588 220.89 66.3488C222.71 66.2288 224.98 65.1688 226.29 67.5588C228.41 71.4588 230.48 75.3888 232.61 79.2888C233.31 80.5688 233.83 81.9788 235.13 83.2088C237.81 78.1088 240.46 73.1388 243.04 68.1388C243.7 66.8588 244.46 66.1488 246.03 66.1288C249.96 66.0688 249.95 65.9888 249.95 70.0188C249.95 77.0888 249.85 84.1588 250.02 91.2188C250.08 93.6488 248.67 93.6288 247.1 93.7388C245.41 93.8588 244.22 93.4788 244.26 91.3588C244.34 87.3088 244.28 83.2488 244.28 79.1988Z" fill="#090909"/>
<path d="M273.45 76.5888C273.45 81.9988 273.33 86.6188 273.5 91.2388C273.6 93.8988 271.99 93.5788 270.3 93.6588C268.48 93.7488 267.65 93.2988 267.68 91.2288C267.78 83.8988 267.65 76.5588 267.71 69.2288C267.71 68.2388 266.95 66.5588 268.54 66.3488C270.29 66.1188 272.3 65.4088 273.76 67.4888C276.87 71.9188 280.11 76.2488 283.32 80.5988C283.76 81.1888 284.14 82.2788 284.92 82.0588C286 81.7488 285.47 80.5688 285.47 79.7788C285.51 76.0288 285.61 72.2588 285.38 68.5188C285.2 65.6588 287.08 66.3588 288.62 66.1988C290.26 66.0388 291.22 66.3388 291.19 68.3788C291.1 75.5388 291.24 82.6988 291.15 89.8588C291.14 91.1488 291.93 93.0588 289.79 93.5388C287.74 93.9988 285.93 93.7588 284.55 91.6988C281.87 87.7188 278.97 83.8888 276.14 80.0188C275.44 79.0588 274.67 78.1388 273.46 76.5788L273.45 76.5888Z" fill="#090909"/>
<path d="M357.36 66.1488C359.8 66.1488 362.25 66.2688 364.69 66.1188C367.24 65.9588 366.57 67.7788 366.74 69.0988C366.95 70.6488 366.55 71.5788 364.68 71.5088C361.54 71.3888 358.4 71.5088 355.26 71.3988C353.76 71.3388 353.35 71.8587 353.34 73.3287C353.3 77.2287 353.23 77.2287 357.2 77.2087C358.77 77.2087 360.36 77.3388 361.91 77.1388C364.36 76.8188 364.79 77.9588 364.86 80.1188C364.93 82.5988 363.57 82.4988 361.87 82.4288C359.95 82.3488 358.02 82.5387 356.12 82.3587C354 82.1687 353.05 82.7787 353.34 85.0487C353.58 86.8887 352.73 89.1788 356.18 88.8088C359.11 88.4888 362.11 88.7888 365.07 88.6988C366.69 88.6488 367.03 89.4888 366.88 90.8088C366.74 92.0688 367.37 93.7788 365.03 93.7588C359.88 93.7188 354.74 93.7388 349.59 93.7788C348.31 93.7788 347.67 93.3688 347.69 91.9788C347.75 84.0388 347.77 76.0988 347.76 68.1688C347.76 66.7288 348.34 66.1288 349.79 66.1588C352.32 66.2188 354.85 66.1788 357.38 66.1788V66.1588L357.36 66.1488Z" fill="#090909"/>
<path d="M319.54 76.2888C319.54 78.5588 319.53 80.8188 319.54 83.0888C319.57 88.0588 316.48 92.2188 311.73 93.6188C306.37 95.1888 300.1 93.3188 297.61 89.4188C296.7 87.9888 296.18 86.4488 296.18 84.7388C296.18 79.3288 296.25 73.9188 296.11 68.5188C296.05 66.3888 297.03 66.0088 298.8 66.1288C300.37 66.2388 302.15 65.5788 302.09 68.3888C301.97 73.1788 302.16 77.9788 302.25 82.7688C302.33 86.7088 304.33 88.7888 307.91 88.7488C311.48 88.7088 313.45 86.5488 313.48 82.6388C313.51 77.9288 313.63 73.2188 313.5 68.5188C313.43 65.9988 314.97 66.2688 316.56 66.2188C318.17 66.1688 319.49 66.1788 319.36 68.4488C319.21 71.0588 319.33 73.6788 319.33 76.2888C319.4 76.2888 319.48 76.2888 319.55 76.2888H319.54Z" fill="#090909"/>
<path d="M443.64 80.1388C443.64 81.4488 443.61 82.7588 443.64 84.0688C443.86 92.9988 437.86 94.9288 430.95 93.6088C427.27 92.8988 425.08 90.5288 424.73 86.8088C424.3 82.2888 424.16 77.7388 424.86 73.2388C425.57 68.6988 429.4 65.9888 434.4 66.2288C439.69 66.4888 443.15 69.4288 443.51 74.1288C443.66 76.1188 443.54 78.1388 443.54 80.1388C443.57 80.1388 443.6 80.1388 443.63 80.1388H443.64ZM437.64 80.4188C437.64 80.4188 437.6 80.4188 437.58 80.4188C437.58 78.6788 437.66 76.9288 437.56 75.1888C437.43 72.9088 435.83 71.9888 433.84 71.9688C431.9 71.9488 430.78 73.2488 430.74 75.1588C430.66 78.6388 430.65 82.1388 430.78 85.6188C430.86 87.7088 432.21 88.7288 434.29 88.6188C436.31 88.5188 437.58 87.5388 437.63 85.3888C437.67 83.7288 437.63 82.0788 437.63 80.4188H437.64Z" fill="#109A0A"/>
<path d="M379.61 93.9888C376.89 93.9088 374.2 93.6888 371.79 92.2588C370.38 91.4188 369.8 90.3988 370.34 88.5788C370.88 86.7188 371.64 86.5888 373.11 87.3888C375.13 88.4788 377.29 89.1188 379.61 89.1288C380.58 89.1288 381.51 88.9788 382.43 88.6388C383.61 88.1988 384.37 87.3788 384.46 86.1588C384.54 84.9688 383.73 84.2088 382.69 83.8288C380.81 83.1388 378.9 82.5488 377 81.9288C372.08 80.3488 370.13 77.6888 370.57 73.1588C370.96 69.1788 373.96 66.4788 378.62 65.9588C381.62 65.6288 384.55 65.9188 387.33 67.1688C389.36 68.0888 390.03 70.4488 388.86 72.3588C388.18 73.4688 387.34 72.8388 386.59 72.5288C384.48 71.6388 382.35 70.9188 380 71.2188C378.34 71.4288 376.78 71.9488 376.56 73.8288C376.35 75.6488 377.83 76.3688 379.27 76.8488C381.25 77.5088 383.31 77.9488 385.26 78.6888C389.03 80.1188 390.54 82.3288 390.44 85.9688C390.34 89.4688 388.3 92.1088 384.76 93.3088C383.08 93.8788 381.36 94.0288 379.6 93.9988L379.61 93.9888Z" fill="#090909"/>
<path d="M409.36 93.8988C409.12 93.8988 409.03 93.8988 408.94 93.8988C407.93 93.7888 406.56 94.2488 406.03 93.2688C405.52 92.3088 406.61 91.3889 407.11 90.5089C407.87 89.1489 409.31 87.8389 409.35 86.4789C409.39 84.9389 407.1 85.0589 405.96 84.1989C402.14 81.3089 400.9 75.4488 403.31 70.9688C405.55 66.8088 411.36 65.0588 416.42 67.0188C420.59 68.6388 422.92 73.3388 421.47 78.0688C419.71 83.8288 415.8 88.4088 412.4 93.2388C411.64 94.3188 410.3 93.7789 409.36 93.8889V93.8988ZM415.7 75.8288C415.64 73.6688 414.03 72.0988 411.86 72.0888C409.61 72.0788 408.09 73.7388 408.16 76.1488C408.22 78.3688 409.78 79.9389 411.92 79.9189C414.1 79.8989 415.77 78.0988 415.7 75.8288Z" fill="#109A0A"/>
<path d="M330.16 82.3187C330.16 79.3487 330.08 76.3787 330.19 73.4087C330.24 71.9887 329.75 71.5587 328.41 71.6587C327.28 71.7487 326.13 71.5888 325.01 71.6988C322.88 71.8988 322.17 71.1187 322.19 68.8987C322.22 66.7187 322.85 66.0687 325.02 66.1287C330.69 66.2687 336.37 66.2887 342.04 66.1287C344.33 66.0587 344.36 67.2487 344.36 68.8687C344.36 70.4587 344.42 71.7387 342.13 71.7187C340.11 71.7087 337.38 70.6587 336.22 72.2787C335.27 73.6087 335.98 76.1487 335.97 78.1487C335.97 82.6887 335.9 87.2287 335.99 91.7687C336.05 94.7587 333.86 93.5587 332.48 93.7587C331.04 93.9687 329.95 93.7387 330.05 91.7387C330.2 88.5987 330.09 85.4587 330.09 82.3087H330.14L330.16 82.3187Z" fill="#090909"/>
<path d="M262.01 80.1288C262.01 83.9688 261.95 87.8088 262.03 91.6488C262.09 94.5188 259.93 93.5488 258.51 93.7888C256.94 94.0488 256.12 93.5088 256.14 91.6888C256.22 83.8388 256.25 75.9888 256.17 68.1288C256.14 65.5288 257.92 66.2888 259.23 66.2188C260.55 66.1488 262.13 65.7488 262.07 68.0888C261.97 72.0988 262.04 76.1188 262.04 80.1288H262.01Z" fill="#060606"/>
<path d="M241.1 108.109C239.367 111.275 237.627 111.706 235.88 109.399C235.75 109.499 235.6 109.569 235.51 109.699C234.94 110.479 236.3 112.299 234.28 112.239C232.08 112.179 233.38 110.419 233.2 109.469C232.98 108.289 233.1 107.039 233.15 105.819C233.18 105.139 232.71 104.089 234.03 104.079C234.94 104.069 235.96 103.769 236.44 105.049C236.89 106.259 237.5 107.419 238.09 108.679C239.16 107.779 239.41 106.539 239.85 105.479C240.37 104.229 241.19 104.119 242.33 104.179C243.8 104.249 243.36 105.329 243.41 106.089C243.53 107.649 243.56 109.219 243.6 110.789C243.61 111.449 243.79 112.209 242.68 112.279C241.61 112.349 241.33 111.879 241.36 110.889C241.39 110.129 241.23 109.359 241.1 108.119V108.109Z" fill="#161616"/>
<path d="M303.33 108.509C303.33 109.359 303.3 110.199 303.33 111.049C303.37 111.949 303 112.299 302.1 112.249C301.42 112.209 300.9 112.109 300.9 111.259C300.92 109.169 300.67 107.039 300.99 104.989C301.25 103.349 302.62 103.649 303.52 104.559C304.53 105.579 305.31 106.819 306.63 108.529C306.63 106.969 306.63 106.059 306.63 105.149C306.63 104.179 307.23 104.029 308.02 104.049C308.78 104.069 309.1 104.439 309.09 105.189C309.07 106.929 309.12 108.679 309.06 110.419C309.04 111.029 309.47 111.969 308.46 112.159C307.55 112.329 306.61 112.449 305.99 111.299C305.43 110.249 304.59 109.349 303.88 108.379C303.7 108.419 303.51 108.459 303.33 108.499V108.509Z" fill="#161616"/>
<path d="M316.71 112.269C314.46 112.519 312.68 111.759 311.89 109.569C311.24 107.789 311.67 106.089 313.21 104.859C315.07 103.379 317.15 103.759 319.2 104.359C319.83 104.539 319.79 105.159 319.67 105.679C319.54 106.239 319.06 106.209 318.62 106.159C317.84 106.069 317.07 105.889 316.29 105.869C315.21 105.829 314.47 106.369 314.15 107.429C313.84 108.459 314.16 109.319 314.95 110.009C315.58 110.569 316.4 110.939 317.05 110.269C317.94 109.359 316.81 109.319 316.36 108.909C315.57 108.189 315.82 107.199 316.82 107.339C317.88 107.499 319.62 106.419 320.02 108.459C320.56 111.139 320.02 111.989 317.73 112.189C317.38 112.219 317.03 112.249 316.69 112.279L316.71 112.269Z" fill="#161616"/>
<path d="M368.9 108.199C368.9 108.109 368.9 108.029 368.9 107.939C368.9 103.649 369.37 103.259 373.62 104.109C375.36 104.449 376.42 105.319 375.56 107.189C375.29 107.779 375.35 107.959 375.65 108.459C376.8 110.329 376.15 111.739 374.04 112.189C373.79 112.239 373.52 112.249 373.26 112.269C370.353 112.495 368.9 111.145 368.9 108.219V108.199ZM373.71 109.779C373.74 109.089 373.23 108.919 372.72 108.829C372.07 108.709 371.51 108.829 371.44 109.659C371.39 110.269 371.63 110.639 372.3 110.599C372.9 110.559 373.52 110.549 373.7 109.779H373.71Z" fill="#161616"/>
<path d="M257.15 108.219C257.15 108.129 257.15 108.049 257.15 107.959C257.15 104.109 258.68 103.019 262.43 104.269C264.21 104.859 264.72 106.309 263.79 107.759C263.08 108.869 263.22 109.569 263.79 110.529C264.08 111.019 264.96 111.669 263.97 112.189C263.41 112.489 262.57 112.439 262.08 111.759C261.67 111.199 261.3 110.619 260.95 110.009C260.69 109.549 260.31 109.489 259.86 109.579C259.38 109.679 259.47 110.079 259.45 110.399C259.39 111.309 259.69 112.419 258.09 112.219C256.47 112.019 257.21 110.829 257.1 110.019C257.02 109.419 257.08 108.809 257.08 108.199H257.13L257.15 108.219Z" fill="#161616"/>
<path d="M423.82 111.979C421.95 112.639 420.73 112.309 420.19 110.489C420 109.849 419.65 109.349 418.89 109.559C418.21 109.739 418.32 110.369 418.35 110.859C418.43 111.949 418.07 112.439 416.88 112.359C415.49 112.259 416.05 111.289 416 110.629C415.93 109.679 416 108.709 416.02 107.759C416.05 103.909 417.07 103.189 420.93 104.149C422.66 104.579 423.18 105.669 422.83 107.259C422.31 109.659 422.27 109.649 423.83 111.989L423.82 111.979ZM419.23 105.529C418.43 105.569 418.33 106.159 418.3 106.779C418.25 107.659 418.79 107.719 419.46 107.609C420.11 107.509 420.64 107.229 420.55 106.489C420.46 105.789 419.86 105.609 419.23 105.529Z" fill="#161616"/>
<path d="M452.94 89.6288C453 91.3988 452.49 92.7988 452.2 94.2488C451.85 95.9688 451.04 96.7187 449.16 96.5787C447.71 96.4687 447.08 96.1487 447.37 94.6087C447.68 92.9887 447.87 91.3388 448.07 89.6988C448.39 87.0888 449.5 86.3287 452.02 87.0487C453.71 87.5387 452.66 88.9488 452.94 89.6288Z" fill="#109A0A"/>
<path d="M352.32 112.359C349.54 112.319 347.63 110.609 347.64 108.179C347.64 105.559 349.79 103.739 352.75 103.829C355.41 103.909 357.26 105.689 357.29 108.209C357.33 110.669 355.25 112.409 352.32 112.369V112.359ZM352.49 105.689C350.73 105.849 350.06 106.859 350.13 108.369C350.19 109.849 351.14 110.589 352.54 110.519C353.95 110.459 354.79 109.659 354.77 108.169C354.75 106.589 353.9 105.789 352.49 105.689Z" fill="#161616"/>
<path d="M340.82 112.319C337.99 112.299 336.2 110.649 336.26 108.109C336.33 105.519 338.3 103.789 341.16 103.809C343.97 103.829 345.96 105.709 345.89 108.269C345.82 110.799 343.89 112.339 340.82 112.319ZM341.04 105.719C339.64 105.789 338.71 106.499 338.65 107.899C338.58 109.519 339.49 110.519 341.13 110.569C342.62 110.619 343.3 109.609 343.36 108.259C343.43 106.719 342.55 105.899 341.04 105.709V105.719Z" fill="#161616"/>
<path d="M406.89 107.759C407.16 106.669 406.15 104.739 407.3 104.259C408.78 103.639 410.7 104.019 412.43 104.009C413.1 104.009 413.31 104.509 413.27 105.079C413.24 105.579 412.87 105.809 412.37 105.809C411.94 105.809 411.49 105.749 411.07 105.829C410.46 105.949 409.4 105.399 409.32 106.339C409.21 107.729 410.44 106.969 411.07 107.049C411.81 107.139 412.49 107.089 412.45 108.119C412.41 109.229 411.59 108.909 410.94 108.999C410.3 109.089 409.14 108.469 409.27 109.859C409.38 110.939 410.35 110.379 410.95 110.479C411.46 110.559 411.99 110.529 412.51 110.509C413.13 110.479 413.48 110.669 413.5 111.369C413.52 112.059 413.2 112.289 412.56 112.259C412.13 112.239 411.69 112.259 411.26 112.259C408.333 112.279 406.876 110.785 406.89 107.779V107.759Z" fill="#161616"/>
<path d="M430.55 110.069C429.48 108.809 428.18 109.099 427.2 108.539C425.64 107.649 425.26 105.739 426.64 104.679C428.33 103.379 430.26 103.629 432.11 104.369C432.77 104.629 432.85 105.319 432.59 105.939C432.29 106.649 431.78 106.349 431.3 106.119C430.99 105.969 430.65 105.859 430.32 105.769C429.64 105.599 428.65 105.349 428.44 106.039C428.12 107.049 429.25 106.869 429.84 107.059C431.18 107.489 432.61 107.799 432.82 109.549C432.97 110.779 432.3 111.629 431.26 111.999C429.57 112.589 427.82 112.489 426.17 111.779C425.67 111.559 425.58 110.939 425.83 110.399C426.14 109.749 426.65 109.859 427.15 110.109C428.2 110.629 429.22 110.839 430.56 110.069H430.55Z" fill="#161616"/>
<path d="M254.58 111.119C254.71 111.669 254.78 112.099 254.34 112.159C253.68 112.249 252.85 112.489 252.39 111.869C250.95 109.909 249.55 110.119 248.12 111.819C247.56 112.489 246.8 112.379 246.22 112.139C245.31 111.779 246.01 111.119 246.22 110.639C246.94 108.869 247.75 107.139 248.43 105.349C248.75 104.499 249.19 104.079 250.13 104.109C251.06 104.139 251.74 104.249 252.13 105.319C252.87 107.359 253.81 109.319 254.58 111.119Z" fill="#161616"/>
<path d="M274.97 112.009C272.25 113.169 271.58 110.559 270.25 109.489C268.87 110.029 270.36 112.699 268.12 112.119C266.27 111.649 267.52 109.939 267.27 108.819C267.07 107.909 267.17 106.909 267.22 105.959C267.26 105.199 266.74 104.139 268.24 104.049C269.67 103.969 269.46 104.899 269.5 105.759C269.5 105.999 269.6 106.229 269.68 106.599C271.4 105.899 272.05 103.219 274.54 104.219C274.44 105.899 271.78 106.399 272.42 108.169C272.93 109.569 274.1 110.729 274.98 112.009H274.97Z" fill="#161616"/>
<path d="M387.68 112.129C386.4 112.099 385.58 112.589 384.75 111.579C383.47 109.999 381.85 110.149 380.65 111.619C379.97 112.459 379.18 112.409 378.63 112.169C377.66 111.739 378.53 110.989 378.74 110.439C379.4 108.659 380.12 106.889 380.88 105.139C381.53 103.669 383.48 103.499 384.24 104.919C385.45 107.179 386.46 109.539 387.68 112.119V112.129Z" fill="#161616"/>
<path d="M277.24 108.089C277.24 107.999 277.24 107.919 277.24 107.829C277.37 106.639 276.62 104.899 277.5 104.379C278.95 103.519 280.87 103.959 282.6 104.029C283.23 104.059 283.51 104.379 283.5 105.029C283.49 105.759 283.02 105.849 282.46 105.859C282.02 105.859 281.58 105.819 281.16 105.869C280.55 105.949 279.52 105.549 279.6 106.639C279.65 107.399 280.52 107.239 281.12 107.209C281.82 107.169 282.58 107.009 282.52 108.129C282.47 109.209 281.68 108.989 281.01 109.029C280.47 109.069 279.62 108.759 279.59 109.669C279.55 110.769 280.49 110.459 281.13 110.509C281.65 110.539 282.18 110.459 282.69 110.539C283.17 110.619 283.37 111.029 283.39 111.499C283.42 112.089 283.03 112.229 282.56 112.229C281.08 112.229 279.6 112.219 278.12 112.209C277.26 112.209 277.19 111.629 277.2 110.959C277.22 109.999 277.2 109.049 277.2 108.089H277.22H277.24Z" fill="#161616"/>
<path d="M289.24 103.919C290.11 103.919 290.98 103.939 291.85 103.919C292.54 103.899 293.07 104.059 293.13 104.849C293.19 105.709 292.65 105.879 291.95 105.759C290.36 105.489 290.33 106.449 290.4 107.599C290.47 108.819 290.38 110.039 290.44 111.259C290.48 112.139 290.02 112.269 289.31 112.259C288.65 112.249 288.08 112.209 288.12 111.309C288.15 110.529 288.19 109.739 288.1 108.959C287.94 107.559 288.99 105.319 285.97 105.749C285.51 105.819 285.32 105.249 285.35 104.779C285.4 104.189 285.68 103.849 286.35 103.869C287.31 103.899 288.27 103.869 289.22 103.869C289.22 103.879 289.22 103.889 289.22 103.899L289.24 103.919Z" fill="#161616"/>
<path d="M331.05 103.929C332.06 103.929 332.59 103.969 333.1 103.929C333.94 103.839 334.47 104.079 334.45 105.009C334.42 105.939 333.74 105.799 333.14 105.769C332.88 105.759 332.61 105.709 332.36 105.759C331.75 105.869 330.72 105.339 330.64 106.309C330.54 107.469 331.63 106.899 332.2 106.969C332.98 107.059 333.87 106.889 333.8 108.099C333.74 109.159 332.9 109.049 332.26 108.959C330.81 108.749 330.42 109.409 330.58 110.719C330.68 111.499 330.76 112.269 329.51 112.279C328.11 112.279 328.29 111.429 328.32 110.539C328.36 109.409 328.48 108.259 328.31 107.149C327.91 104.499 328.85 103.379 331.06 103.939L331.05 103.929Z" fill="#161616"/>
<path d="M362.6 103.919C363.12 103.919 363.65 103.839 364.15 103.939C364.9 104.079 366.08 103.339 366.29 104.659C366.52 106.109 365.25 105.689 364.51 105.809C363.59 105.959 363.79 106.629 363.77 107.199C363.73 108.589 363.72 109.969 363.72 111.359C363.72 112.259 363.13 112.239 362.49 112.239C361.87 112.239 361.5 112.059 361.5 111.379C361.5 110.509 361.51 109.649 361.47 108.779C361.4 107.389 362.18 105.409 359.43 105.809C358.85 105.889 358.84 105.299 358.85 104.879C358.86 104.319 359.02 103.889 359.75 103.919C360.7 103.969 361.65 103.929 362.61 103.929L362.6 103.919Z" fill="#161616"/>
<path d="M398.46 108.239C398.46 107.279 398.46 106.319 398.46 105.359C398.46 104.609 398.53 103.949 399.53 103.939C400.45 103.939 400.75 104.429 400.73 105.249C400.72 105.769 400.77 106.299 400.74 106.819C400.63 108.939 400.28 111.229 403.71 110.519C404.35 110.389 404.66 110.719 404.64 111.399C404.63 112.129 404.18 112.229 403.61 112.229C403.26 112.229 402.91 112.229 402.56 112.229C399.82 112.276 398.45 110.942 398.45 108.229L398.46 108.239Z" fill="#161616"/>
<path d="M389.76 108.169C389.76 107.299 389.78 106.429 389.76 105.559C389.74 104.719 389.74 103.969 390.93 104.009C392.15 104.049 392 104.889 392.01 105.669C392.01 106.109 392.07 106.549 392.01 106.979C391.73 109.319 391.9 111.209 395.1 110.569C395.54 110.479 396.17 110.399 396.21 111.229C396.25 112.059 395.79 112.269 395.09 112.239C394.65 112.229 394.22 112.239 393.78 112.239C391.053 112.252 389.713 110.896 389.76 108.169Z" fill="#090909"/>
<path d="M295.62 108.119C295.62 107.169 295.64 106.209 295.62 105.259C295.59 104.409 295.92 103.969 296.81 103.959C297.78 103.949 297.96 104.539 297.95 105.309C297.93 107.219 297.88 109.129 297.88 111.039C297.88 111.849 297.66 112.329 296.7 112.309C295.73 112.289 295.55 111.809 295.59 110.989C295.63 110.039 295.6 109.079 295.6 108.129H295.61L295.62 108.119Z" fill="#161616"/>
</svg>
