<?xml version="1.0" encoding="UTF-8"?>
<svg fill="#239D60" xmlns="http://www.w3.org/2000/svg" id="Layer_1" data-name="Layer 1" viewBox="0 0 24 24" width="512" height="512">
  <path d="M24,12c0-1.626-.714-3.16-1.925-4.124,.14-1.622-.44-3.211-1.59-4.362-1.15-1.149-2.735-1.728-4.277-1.555-2.014-2.556-6.365-2.604-8.332-.035-1.624-.144-3.211,.439-4.361,1.59-1.149,1.15-1.729,2.74-1.555,4.277-2.556,2.014-2.605,6.365-.035,8.333-.14,1.622,.44,3.211,1.59,4.362,1.15,1.149,2.737,1.73,4.277,1.555,2.014,2.556,6.365,2.604,8.332,.035,1.62,.136,3.21-.439,4.361-1.59,1.149-1.15,1.729-2.74,1.555-4.277,1.246-1.048,1.96-2.582,1.96-4.208Z"/>
  <path fill="#FFFFFF" d="M17.54 10.566c.397-.383.409-1.017.025-1.414-.383-.397-1.016-.408-1.414-.026l-4.752 4.581c-.39.391-1.022.392-1.44-.025l-2.278-2.117c-.402-.375-1.036-.353-1.413.052-.376.404-.352 1.037.052 1.413l2.252 2.092c1.163 1.164 3.066 1.174 4.229.013l4.739-4.568Z"/>
</svg>
